# xmcd CD database file
#
# Track frame offsets:
#	150
#	14853
#	27952
#	42630
#	53292
#	70762
#	82820
#	97086
#	110216
#	122423
#	138894
#	150521
#	162523
#	176512
#	186791
#	201018
#	211917
#	221929
#	236515
#	257122
#	269325
#	287752
#	303063
#
# Disc length: 4173 seconds
#
# Revision: 0
# Processed by: cddbd v1.5.2PL0 Copyright (c) Steve Scherf et al.
# Submitted via: CDex 1.51
#
DISCID=49104b17
DTITLE=Various Artist - Tribute To Sonny Boy Williamson I and II (Disc-1)
DYEAR=1900
DGENRE=Blues
TTITLE0=Sloppy Brunk Blues - Sonny Boy Williamson #1
TTITLE1=Jivin' The Blues - Sonny Boy Williamson #1
TTITLE2=Sugar Mama Blues - Hammie Nixon
TTITLE3=Good Morning Little School Girl - Smokey Hogg
TTITLE4=Good Morning Little School Girl - Junior Wells
TTITLE5=Ora Nelle Blues - Othum Brown with Little Walter
TTITLE6=Take A Little Walk With Me - Baby Face Leroy
TTITLE7=Crying Shame - Snooky Pryor
TTITLE8=I Wish You Would - Billy Boy Arnold
TTITLE9=Ground Hog Blues - Good Rockin' Charles
TTITLE10=Little Girl - Little Willie Foster
TTITLE11=Rhythm Rockin' Boogie - John Lee Henley
TTITLE12=Great Lakes Boogie - Alfred Harris
TTITLE13=Jumpin' Blues - Big Walter Horton
TTITLE14=Western Union Man - Joe Hill Louis
TTITLE15=My Little Machine - Drifting Slim
TTITLE16=Step Back Baby - Sonny Blair
TTITLE17=Stop Messin' Around - Walter Mitchell
TTITLE18=Motherless Children - Robert Rochard
TTITLE19=Must Have Been The Devil - Otis Spann
TTITLE20=Stop Breaking Down - Eddie Taylor
TTITLE21=Hoodoo Man - Buddy Guy and Junior Wells
TTITLE22=Sloppy Drunk - Johnny Winter
EXTD=
EXTT0=
EXTT1=
EXTT2=
EXTT3=
EXTT4=
EXTT5=
EXTT6=
EXTT7=
EXTT8=
EXTT9=
EXTT10=
EXTT11=
EXTT12=
EXTT13=
EXTT14=
EXTT15=
EXTT16=
EXTT17=
EXTT18=
EXTT19=
EXTT20=
EXTT21=
EXTT22=
PLAYORDER=
